<?xml version="1.0" encoding="utf-8"?>
<!-- Generator: Adobe Illustrator 19.0.0, SVG Export Plug-In . SVG Version: 6.00 Build 0)  -->
<svg version="1.1" id="Capa_1" xmlns="http://www.w3.org/2000/svg" xmlns:xlink="http://www.w3.org/1999/xlink" x="0px" y="0px"
	 viewBox="276 -264.8 612 612" style="enable-background:new 276 -264.8 612 612;" xml:space="preserve">
<style type="text/css">
	.st0{fill:#7D9C72;stroke:#7D9C72;stroke-width:10;stroke-miterlimit:10;}
</style>
<g>
	<g id="linkedin">
		<g>
			<path class="st0" d="M409.6-92.4h-116c-7.9,0-14.4,6.4-14.4,14.4v405.3c0,7.9,6.4,14.4,14.4,14.4h115.9c7.9,0,14.4-6.4,14.4-14.4
				V-78C423.9-86,417.5-92.4,409.6-92.4z M395.2,313H308V-63.6h87.2V313z M732.8-97.2c-56.3,0-93.1,24.3-114.5,45.4l-2.6-27.5
				c-0.7-7.4-6.9-13-14.3-13h-0.3l-105.7,2c-3.9,0.1-7.6,1.7-10.2,4.5c-2.7,2.8-4.1,6.6-3.9,10.5c1.3,29.6,1.3,64.2,1.2,104.2v300.4
				c0,7.9,6.4,14.4,14.4,14.4h115.9c7.9,0,14.4-6.4,14.4-14.4V95c0-12,1-20.6,3.1-25.8c7.2-18.4,31.1-37.4,58.4-37.4
				c35.5,0,56.6,27,56.6,72.2v225.3c0,7.9,6.4,14.4,14.4,14.4h113.9c7.9,0,14.4-6.4,14.4-14.4v-240C888-27.5,830-97.2,732.8-97.2z
				 M859.3,315h-85.2V104c0-61.3-33.5-100.9-85.4-100.9c-41.1,0-74.6,28.7-85.2,55.6c-3.5,8.7-5.1,20.3-5.1,36.3v220h-87.2V29
				c0-34,0.1-64.1-0.7-90.8l77.8-1.5l4.5,46.3c0.7,7.4,6.9,13,14.3,13h2.4c5,0,9.6-2.5,12.2-6.8c8.5-13.5,41.5-57.7,111.1-57.7
				c80.4,0,126.4,57.5,126.4,157.9L859.3,315L859.3,315L859.3,315z M356.5-261.3c-46.6,0-80.5,32.1-80.5,76.4s33.2,76.4,78.9,76.4
				c47.1,0,81.3-32.1,81.3-76.7C435.1-230.1,402.3-261.3,356.5-261.3z M354.9-137.4c-29.5,0-50.1-19.6-50.1-47.6
				c0-28.5,20.8-47.7,51.7-47.7c30.3,0,50.3,18.8,50.9,47.7C407.4-156.4,386.3-137.4,354.9-137.4z"/>
		</g>
	</g>
</g>
</svg>
