<?xml version="1.0" encoding="utf-8"?>
<!-- Generator: Adobe Illustrator 19.0.0, SVG Export Plug-In . SVG Version: 6.00 Build 0)  -->
<svg version="1.1" id="Layer_1" xmlns="http://www.w3.org/2000/svg" xmlns:xlink="http://www.w3.org/1999/xlink" x="0px" y="0px"
	 viewBox="226 -214.8 512 512" style="enable-background:new 226 -214.8 512 512;" xml:space="preserve">
<style type="text/css">
	.st0{fill:#7D9C72;stroke:#7D9C72;stroke-width:10;stroke-miterlimit:10;}
</style>
<path class="st0" d="M710.6-91.2H253.3h-4h-9.6h-6.6v318.6h497.8V-91.2h-17.2C713.7-91.2,710.6-91.2,710.6-91.2z M690.7-71.3
	L498.4,121c-8.8,8.8-24.1,8.8-32.8,0L273.3-71.3H690.7z M253-63.4L382.3,65.9L253,195.2V-63.4z M268.9,207.4L396.4,80l55.1,55.1
	c8.1,8.1,19,12.6,30.5,12.6s22.4-4.5,30.5-12.6L567.6,80l127.5,127.5L268.9,207.4L268.9,207.4z M711,195.2L581.7,65.9L711-63.4
	V195.2L711,195.2z"/>
</svg>
