<?xml version="1.0" encoding="utf-8"?>
<!-- Generator: Adobe Illustrator 19.0.0, SVG Export Plug-In . SVG Version: 6.00 Build 0)  -->
<svg version="1.1" id="Layer_1" xmlns="http://www.w3.org/2000/svg" xmlns:xlink="http://www.w3.org/1999/xlink" x="0px" y="0px"
	 viewBox="-17 30.2 24 24" style="enable-background:new -17 30.2 24 24;" xml:space="preserve">
<style type="text/css">
	.st0{fill:#7D9C72;stroke:#7D9C72;stroke-width:0.75;stroke-miterlimit:10;}
</style>
<g>
	<g>
		<path class="st0" d="M3,54.3h-5c-0.2,0-0.3-0.1-0.4-0.3l-5-9c-0.1-0.2-0.1-0.3,0-0.5l8-14c0.1-0.2,0.3-0.3,0.4-0.3h5
			c0.2,0,0.3,0.1,0.4,0.2c0.1,0.2,0.1,0.3,0,0.5l-7.9,13.8l4.9,8.8c0.1,0.2,0.1,0.3,0,0.5C3.3,54.2,3.2,54.3,3,54.3z M-1.7,53.3h3.9
			l-4.6-8.2c-0.1-0.2-0.1-0.3,0-0.5l7.6-13.3H1.3l-7.7,13.5L-1.7,53.3z"/>
	</g>
	<g>
		<path class="st0" d="M-11,47.3h-5c-0.2,0-0.3-0.1-0.4-0.2c-0.1-0.2-0.1-0.3,0-0.5l3.9-6.7l-2.9-4.7c-0.1-0.2-0.1-0.3,0-0.5
			s0.3-0.3,0.4-0.3h5c0.2,0,0.3,0.1,0.4,0.2l3,5c0.1,0.2,0.1,0.3,0,0.5l-4,7C-10.7,47.2-10.8,47.3-11,47.3z M-15.1,46.3h3.8l3.7-6.5
			l-2.7-4.5h-3.8l2.5,4.2c0.1,0.2,0.1,0.3,0,0.5L-15.1,46.3z"/>
	</g>
</g>
</svg>
