<?xml version="1.0" encoding="utf-8"?>
<!-- Generator: Adobe Illustrator 19.0.0, SVG Export Plug-In . SVG Version: 6.00 Build 0)  -->
<svg version="1.1" id="Layer_1" xmlns="http://www.w3.org/2000/svg" xmlns:xlink="http://www.w3.org/1999/xlink" x="0px" y="0px"
	 viewBox="226 -214.8 512 512" style="enable-background:new 226 -214.8 512 512;" xml:space="preserve">
<style type="text/css">
	.st0{fill:#7D9C72;stroke:#7D9C72;stroke-width:11;stroke-miterlimit:10;}
</style>
<path class="st0" d="M482-191.4c31.3,0,61.7,6.3,90.4,18.7c27.7,12,52.6,29.2,73.9,51.1s38.2,47.5,50,75.9
	c12.2,29.5,18.3,60.8,18.3,93.2c0,51.2-15.5,100.1-45,141.2c-14.1,19.8-31.1,37.1-50.3,51.7c-17.7,13.3-36.9,23.8-57.3,31.5
	c0-2.1,0-4.6,0-7.3c0.1-13.3,0.2-33.3,0.2-56.4c0-13.9-2.2-25.2-5.5-34.1c41.6-9.3,102.9-37.7,102.9-140.2c0-27.5-7.9-52-23.7-72.8
	c3.5-14.4,6.2-39.8-5.7-70.5l-3-7.9l-8.1-2.7c-1.7-0.6-5.4-1.5-11.2-1.5c-12.9,0-34.6,4.4-66.5,25.3c-19-4.7-38.9-7.4-59.4-7.4h-0.1
	h-0.1c-20.5,0-40.5,2.7-59.4,7.4c-32-20.9-53.7-25.4-66.5-25.4c-5.8,0-9.5,1-11.2,1.6l-8.1,2.7l-3,7.9c-11.9,30.8-9.2,56.1-5.7,70.5
	C312.2-18,304.3,6.5,304.3,33.9c0,55.5,17.9,89.4,40.9,110.2c-9.1-7.4-20.8-13.5-34.9-14.5h-0.6h-0.6h-0.3c-14.6,0-24.9,6-28.2,16.4
	c-5.3,16.6,11,28,16.3,31.8l0.6,0.7l1.7,0.7c1.8,1.1,11.3,7.8,18.9,27.4c2.2,6.9,7,16.2,15.2,24.8c-14.6-12.5-27.7-26.8-39-42.6
	c-29.4-41-45-89.9-45-141.1c0-32.3,6.2-63.6,18.3-93.2c11.7-28.5,28.5-54,50-75.9c21.4-21.9,46.3-39.1,73.9-51.1
	C420.3-185,450.7-191.4,482-191.4 M348.6,147.1c18.8,15.8,40.6,23.4,58.5,27.4c-0.9,2.5-1.7,5-2.3,7.7c-3.8,1.1-8.4,2-13.1,2
	c-12.2,0-21.2-6-28.6-18.9C360.3,160.2,355.4,153.4,348.6,147.1 M352.7,246.2c11,5.9,24.7,9.8,41.6,9.8c2.5,0,4.9-0.1,7.5-0.2
	c0,3.1,0,6.2,0.1,8.8c0,2.7,0,5.1,0.1,7.3C384.6,265.4,368.2,256.8,352.7,246.2 M482-209.3c-138.3,0-250.5,115.1-250.5,256.9
	c0,113.5,71.8,209.7,171.3,243.7c1.6,0.3,2.9,0.4,4.2,0.4c9.3,0,12.9-6.8,12.9-12.7c0-6.2-0.2-22.3-0.3-43.7c-9.4,2.1-17.8,3-25.3,3
	c-48.2,0-59.2-37.5-59.2-37.5c-11.4-29.6-27.8-37.8-27.8-37.8c-21.8-15.3-0.1-15.9,1.6-15.9c0.1,0,0.1,0,0.1,0
	c25.2,2.2,38.4,26.7,38.4,26.7c12.5,21.9,29.3,28.2,44.3,28.2c11.7,0,22.4-3.8,28.6-6.7c2.2-16.6,8.7-27.8,15.9-34.3
	c-55.6-6.5-114.1-28.5-114.1-127c0-28.1,9.7-51,25.7-68.9c-2.6-6.5-11.2-32.7,2.5-68c0,0,1.8-0.6,5.6-0.6c9.1,0,29.5,3.5,63.3,27
	c20-5.7,41.4-8.5,62.7-8.6c21.2,0.1,42.7,2.9,62.7,8.6c33.8-23.5,54.2-27,63.3-27c3.8,0,5.6,0.6,5.6,0.6c13.6,35.3,5,61.5,2.5,68
	c16,18,25.7,40.9,25.7,68.9c0,98.6-58.6,120.3-114.4,126.7c8.9,7.9,17,23.6,17,47.5c0,34.3-0.3,62.1-0.3,70.5
	c0,6,3.5,12.9,12.7,12.9c1.3,0,2.9-0.1,4.5-0.4C660.8,257.3,732.5,161,732.5,47.6C732.5-94.2,620.3-209.3,482-209.3L482-209.3z"/>
</svg>
